<?xml version="1.0" encoding="UTF-8"?>
<!DOCTYPE svg PUBLIC "-//W3C//DTD SVG 1.1//EN" "http://www.w3.org/Graphics/SVG/1.1/DTD/svg11.dtd">
<svg xmlns="http://www.w3.org/2000/svg" version="1.1" width="512px" height="512px" style="shape-rendering:geometricPrecision; text-rendering:geometricPrecision; image-rendering:optimizeQuality; fill-rule:evenodd; clip-rule:evenodd" xmlns:xlink="http://www.w3.org/1999/xlink">
<g><path style="opacity:1" fill="#184577" d="M 105.5,-0.5 C 205.833,-0.5 306.167,-0.5 406.5,-0.5C 409.589,0.784567 412.922,1.45123 416.5,1.5C 421.04,2.94879 425.707,4.28212 430.5,5.5C 436.99,8.11482 443.323,11.1148 449.5,14.5C 449.842,15.3382 450.508,15.6716 451.5,15.5C 454.112,17.1454 456.779,18.8121 459.5,20.5C 464.865,25.1743 470.198,29.841 475.5,34.5C 479.15,38.206 482.816,42.5393 486.5,47.5C 486.706,49.5492 487.539,49.8825 489,48.5C 489.617,49.4491 489.451,50.2825 488.5,51C 491.324,54.8464 493.99,58.6797 496.5,62.5C 501.483,72.1162 505.483,82.1162 508.5,92.5C 509.571,98.9568 510.571,105.29 511.5,111.5C 511.5,218.5 511.5,325.5 511.5,432.5C 509.926,435.907 508.926,439.573 508.5,443.5C 507.599,444.29 506.932,445.29 506.5,446.5C 505.414,446.62 504.747,447.287 504.5,448.5C 501.968,453.676 499.968,459.009 498.5,464.5C 498.068,465.71 497.401,466.71 496.5,467.5C 495.624,467.369 494.957,467.702 494.5,468.5C 493.014,470.302 492.014,472.302 491.5,474.5C 491.291,475.922 490.791,477.255 490,478.5C 486.662,481.339 483.495,484.339 480.5,487.5C 476.806,489.545 473.14,491.545 469.5,493.5C 469.5,494.5 469.5,495.5 469.5,496.5C 467.739,497.313 466.072,498.313 464.5,499.5C 456.188,502.688 448.188,506.021 440.5,509.5C 439.005,509.989 437.671,510.655 436.5,511.5C 315.5,511.5 194.5,511.5 73.5,511.5C 73.5,510.833 73.1667,510.5 72.5,510.5C 72.4226,509.25 71.756,508.417 70.5,508C 66.4574,507.887 62.7907,506.721 59.5,504.5C 58.8933,504.624 58.56,504.957 58.5,505.5C 58.1667,505.5 57.8333,505.5 57.5,505.5C 54.6599,502.242 50.9932,500.242 46.5,499.5C 46.1667,499.5 45.8333,499.5 45.5,499.5C 43.3374,497.917 41.0041,496.584 38.5,495.5C 34.1407,491.472 29.8073,487.472 25.5,483.5C 20.7523,478.094 16.4189,472.427 12.5,466.5C 12.573,464.973 11.9063,463.973 10.5,463.5C 5.65302,453.161 1.98635,442.494 -0.5,431.5C -0.5,324.167 -0.5,216.833 -0.5,109.5C 0.529358,103.533 1.52936,97.1999 2.5,90.5C 3.43448,89.4324 3.76781,88.099 3.5,86.5C 4.94505,84.4293 5.94505,82.096 6.5,79.5C 9.70965,77.0817 11.3763,73.7483 11.5,69.5C 12.6843,68.3121 12.6843,67.1455 11.5,66C 13.7186,64.3994 15.0519,62.2328 15.5,59.5C 18.2632,54.9634 21.2632,50.6301 24.5,46.5C 25.8333,45.8333 26.8333,44.8333 27.5,43.5C 28.675,43.719 29.675,43.3857 30.5,42.5C 31.5099,39.7451 33.3432,37.7451 36,36.5C 36.4828,35.552 36.6495,34.552 36.5,33.5C 38.8949,30.1385 41.8949,27.4719 45.5,25.5C 47.0009,24.2485 48.6675,23.2485 50.5,22.5C 52.9095,21.6165 55.2429,20.4498 57.5,19C 58.8228,18.1841 59.4894,17.0174 59.5,15.5C 60.1667,15.5 60.5,15.1667 60.5,14.5C 61.4916,14.6716 62.1583,14.3382 62.5,13.5C 63.4916,13.6716 64.1583,13.3382 64.5,12.5C 74.1095,7.63163 84.1095,3.96496 94.5,1.5C 98.3875,1.35407 102.054,0.687399 105.5,-0.5 Z"/></g>
<g><path style="opacity:0.008" fill="#9aa7b2" d="M 94.5,1.5 C 93.8333,0.166667 93.8333,0.166667 94.5,1.5 Z"/></g>
<g><path style="opacity:0.008" fill="#869db2" d="M 416.5,0.5 C 417.833,1.16667 417.833,1.16667 416.5,0.5 Z"/></g>
<g><path style="opacity:0.008" fill="#517396" d="M 430.5,4.5 C 431.833,5.16667 431.833,5.16667 430.5,4.5 Z"/></g>
<g><path style="opacity:0.008" fill="#45557b" d="M 64.5,12.5 C 63.8333,11.1667 63.8333,11.1667 64.5,12.5 Z"/></g>
<g><path style="opacity:0.008" fill="#5f758e" d="M 62.5,13.5 C 61.8333,12.1667 61.8333,12.1667 62.5,13.5 Z"/></g>
<g><path style="opacity:0.008" fill="#496383" d="M 449.5,13.5 C 448.833,12.1667 448.833,12.1667 449.5,13.5 Z"/></g>
<g><path style="opacity:0.008" fill="#6d86a8" d="M 60.5,14.5 C 59.8333,13.1667 59.8333,13.1667 60.5,14.5 Z"/></g>
<g><path style="opacity:0.008" fill="#1a468b" d="M 449.5,13.5 C 450.833,14.1667 450.833,14.1667 449.5,13.5 Z"/></g>
<g><path style="opacity:0.008" fill="#67809a" d="M 451.5,14.5 C 452.833,15.1667 452.833,15.1667 451.5,14.5 Z"/></g>
<g><path style="opacity:0.008" fill="#7e90ab" d="M 56.5,16.5 C 55.8333,15.1667 55.8333,15.1667 56.5,16.5 Z"/></g>
<g><path style="opacity:0.69" fill="#687ea1" d="M 59.5,15.5 C 59.4894,17.0174 58.8228,18.1841 57.5,19C 55.2429,20.4498 52.9095,21.6165 50.5,22.5C 52.1455,20.1878 54.1455,18.1878 56.5,16.5C 57.609,16.4431 58.609,16.1098 59.5,15.5 Z"/></g>
<g><path style="opacity:1" fill="#b6c9e1" d="M 238.5,20.5 C 248.659,21.3303 258.992,21.8303 269.5,22C 261.664,22.4335 261.664,23.4335 269.5,25C 267.1,25.1858 264.766,25.6858 262.5,26.5C 262.709,27.086 263.043,27.586 263.5,28C 266.208,28.2361 268.708,29.0695 271,30.5C 275.676,29.4949 280.676,29.4949 286,30.5C 290.041,32.1158 290.208,33.4491 286.5,34.5C 279.826,34.2871 273.159,33.9538 266.5,33.5C 236.502,31.5773 207.169,35.5773 178.5,45.5C 178.574,43.5891 179.574,42.4224 181.5,42C 180.975,41.3076 180.308,40.8076 179.5,40.5C 174.405,41.0425 169.405,42.0425 164.5,43.5C 162.278,42.2217 159.944,41.2217 157.5,40.5C 155.255,42.6227 152.588,43.6227 149.5,43.5C 152.433,41.0964 155.766,39.263 159.5,38C 184.747,27.2716 211.08,21.4383 238.5,20.5 Z"/></g>
<g><path style="opacity:1" fill="#a8beda" d="M 344.5,36.5 C 345.041,39.6516 344.041,42.1516 341.5,44C 343.833,44.3333 346.167,44.6667 348.5,45C 344.558,45.87 340.558,46.37 336.5,46.5C 319.775,42.3585 303.109,38.3585 286.5,34.5C 290.208,33.4491 290.041,32.1158 286,30.5C 280.676,29.4949 275.676,29.4949 271,30.5C 268.708,29.0695 266.208,28.2361 263.5,28C 263.043,27.586 262.709,27.086 262.5,26.5C 264.766,25.6858 267.1,25.1858 269.5,25C 261.664,23.4335 261.664,22.4335 269.5,22C 258.992,21.8303 248.659,21.3303 238.5,20.5C 275.082,17.9525 310.415,23.2858 344.5,36.5 Z"/></g>
<g><path style="opacity:0.008" fill="#2e5180" d="M 45.5,25.5 C 44.8333,24.1667 44.8333,24.1667 45.5,25.5 Z"/></g>
<g><path style="opacity:0.008" fill="#6a82a0" d="M 475.5,33.5 C 476.833,34.1667 476.833,34.1667 475.5,33.5 Z"/></g>
<g><path style="opacity:0.741" fill="#5a7595" d="M 36.5,33.5 C 36.6495,34.552 36.4828,35.552 36,36.5C 33.3432,37.7451 31.5099,39.7451 30.5,42.5C 29.675,43.3857 28.675,43.719 27.5,43.5C 28.7595,40.4042 30.9262,38.0708 34,36.5C 35.113,35.2396 35.2797,34.073 34.5,33C 35.4368,32.3083 36.1034,32.475 36.5,33.5 Z"/></g>
<g><path style="opacity:0.008" fill="#7698bd" d="M 24.5,46.5 C 23.8333,45.1667 23.8333,45.1667 24.5,46.5 Z"/></g>
<g><path style="opacity:1" fill="#6f92ba" d="M 266.5,33.5 C 273.159,33.9538 279.826,34.2871 286.5,34.5C 303.109,38.3585 319.775,42.3585 336.5,46.5C 347.773,51.8832 359.107,57.3832 370.5,63C 379.188,69.342 388.188,75.1754 397.5,80.5C 401.324,83.8238 404.991,87.3238 408.5,91C 412.245,93.4252 415.578,96.4252 418.5,100C 420.37,101.366 422.37,102.533 424.5,103.5C 425.382,102.24 426.382,101.074 427.5,100C 429.085,99.9152 430.418,99.7486 431.5,99.5C 430.675,97.1987 430.008,94.8654 429.5,92.5C 437.237,99.5739 443.904,107.574 449.5,116.5C 449.217,117.289 448.717,117.956 448,118.5C 446.615,117.449 445.615,116.116 445,114.5C 444.395,116.481 443.395,116.815 442,115.5C 438.831,117.145 437.997,119.479 439.5,122.5C 437.234,122.859 435.401,122.192 434,120.5C 431.412,123.2 428.579,125.533 425.5,127.5C 422.939,125.36 420.605,123.027 418.5,120.5C 379.36,77.274 330.693,52.774 272.5,47C 262.172,46.5002 251.839,46.3335 241.5,46.5C 247.319,45.6724 253.319,45.1724 259.5,45C 258.5,44.6667 257.5,44.3333 256.5,44C 258.784,42.6371 258.951,41.1371 257,39.5C 256.667,39.8333 256.333,40.1667 256,40.5C 255.691,39.2341 255.191,38.0674 254.5,37C 252.527,36.5045 250.527,36.3379 248.5,36.5C 248.5,35.5 248.5,34.5 248.5,33.5C 254.5,33.5 260.5,33.5 266.5,33.5 Z"/></g>
<g><path style="opacity:0.008" fill="#6b84a6" d="M 486.5,46.5 C 487.833,47.1667 487.833,47.1667 486.5,46.5 Z"/></g>
<g><path style="opacity:1" fill="#7e9dc2" d="M 266.5,33.5 C 260.5,33.5 254.5,33.5 248.5,33.5C 248.5,34.5 248.5,35.5 248.5,36.5C 250.527,36.3379 252.527,36.5045 254.5,37C 255.191,38.0674 255.691,39.2341 256,40.5C 256.333,40.1667 256.667,39.8333 257,39.5C 258.951,41.1371 258.784,42.6371 256.5,44C 257.5,44.3333 258.5,44.6667 259.5,45C 253.319,45.1724 247.319,45.6724 241.5,46.5C 199.239,49.6329 160.906,63.2995 126.5,87.5C 125.602,86.8423 124.602,86.1757 123.5,85.5C 125.396,84.5344 127.396,84.2011 129.5,84.5C 129.5,83.5 129.5,82.5 129.5,81.5C 124.967,80.0165 120.301,79.3498 115.5,79.5C 134.205,64.3078 155.205,52.9745 178.5,45.5C 207.169,35.5773 236.502,31.5773 266.5,33.5 Z"/></g>
<g><path style="opacity:1" fill="#99b4d2" d="M 344.5,36.5 C 359.031,42.4322 373.031,49.4322 386.5,57.5C 386.921,59.9099 388.254,61.7432 390.5,63C 394.286,65.7326 398.286,68.2326 402.5,70.5C 403.08,72.6367 404.08,74.47 405.5,76C 405.043,76.414 404.709,76.914 404.5,77.5C 407.846,79.5616 408.346,82.2282 406,85.5C 405.193,83.4226 404.026,81.5893 402.5,80C 402.833,79.6667 403.167,79.3333 403.5,79C 401.225,78.595 399.225,79.095 397.5,80.5C 388.188,75.1754 379.188,69.342 370.5,63C 359.107,57.3832 347.773,51.8832 336.5,46.5C 340.558,46.37 344.558,45.87 348.5,45C 346.167,44.6667 343.833,44.3333 341.5,44C 344.041,42.1516 345.041,39.6516 344.5,36.5 Z"/></g>
<g><path style="opacity:0.008" fill="#7e91a8" d="M 15.5,59.5 C 14.8333,58.1667 14.8333,58.1667 15.5,59.5 Z"/></g>
<g><path style="opacity:0.008" fill="#3d6189" d="M 496.5,61.5 C 497.833,62.1667 497.833,62.1667 496.5,61.5 Z"/></g>
<g><path style="opacity:0.086" fill="#6a879f" d="M 11.5,69.5 C 11.3763,73.7483 9.70965,77.0817 6.5,79.5C 7.12466,75.5839 8.79132,72.2506 11.5,69.5 Z"/></g>
<g><path style="opacity:1" fill="#88a6cb" d="M 386.5,57.5 C 401.704,68.0309 416.037,79.6975 429.5,92.5C 430.008,94.8654 430.675,97.1987 431.5,99.5C 430.418,99.7486 429.085,99.9152 427.5,100C 426.382,101.074 425.382,102.24 424.5,103.5C 422.37,102.533 420.37,101.366 418.5,100C 415.578,96.4252 412.245,93.4252 408.5,91C 404.991,87.3238 401.324,83.8238 397.5,80.5C 399.225,79.095 401.225,78.595 403.5,79C 403.167,79.3333 402.833,79.6667 402.5,80C 404.026,81.5893 405.193,83.4226 406,85.5C 408.346,82.2282 407.846,79.5616 404.5,77.5C 404.709,76.914 405.043,76.414 405.5,76C 404.08,74.47 403.08,72.6367 402.5,70.5C 398.286,68.2326 394.286,65.7326 390.5,63C 388.254,61.7432 386.921,59.9099 386.5,57.5 Z"/></g>
<g><path style="opacity:1" fill="#092d54" d="M 348.5,90.5 C 360.961,96.9614 372.628,104.628 383.5,113.5C 383.631,114.376 383.298,115.043 382.5,115.5C 376.119,111.76 369.786,107.927 363.5,104C 352.826,99.4094 341.826,95.5761 330.5,92.5C 327.006,89.8852 323.006,88.3852 318.5,88C 317.663,86.9887 317.33,85.8221 317.5,84.5C 308.899,83.2335 300.065,82.2335 291,81.5C 290.439,82.0219 289.772,82.3552 289,82.5C 287.333,81.5 285.667,80.5 284,79.5C 272.289,80.801 260.622,82.1344 249,83.5C 248.333,82.8333 247.667,82.1667 247,81.5C 243.144,82.367 239.477,83.7003 236,85.5C 235.107,84.9186 234.107,84.5852 233,84.5C 226.636,85.6929 220.469,87.3596 214.5,89.5C 213.833,89.1667 213.167,88.8333 212.5,88.5C 209.687,90.3 207.687,92.6334 206.5,95.5C 199.403,96.6072 192.737,98.2739 186.5,100.5C 184.132,102.926 181.465,105.092 178.5,107C 174.249,108.299 170.249,109.966 166.5,112C 166.833,112.333 167.167,112.667 167.5,113C 164.958,114.77 162.291,116.27 159.5,117.5C 158.571,118.689 158.238,120.022 158.5,121.5C 155.475,122.725 152.475,123.225 149.5,123C 146.333,127.5 142.5,131.333 138,134.5C 137.44,139.421 134.94,141.587 130.5,141C 131.167,141.667 131.833,142.333 132.5,143C 129.958,144.77 127.291,146.27 124.5,147.5C 126.85,148.774 126.683,150.107 124,151.5C 123.51,152.793 123.343,154.127 123.5,155.5C 121.167,156.167 118.833,156.833 116.5,157.5C 116.798,154.664 116.131,154.164 114.5,156C 115.576,157.726 115.743,159.559 115,161.5C 113.26,162.716 112.26,164.382 112,166.5C 110.414,167.376 108.914,168.376 107.5,169.5C 108.223,171.164 107.89,172.831 106.5,174.5C 104.031,175.605 102.364,177.438 101.5,180C 100.552,180.483 99.552,180.649 98.5,180.5C 99.1064,185.22 97.4397,188.886 93.5,191.5C 92.1667,192.833 92.1667,194.167 93.5,195.5C 92.3717,196.262 91.2051,196.929 90,197.5C 90.1929,202.352 88.8596,206.685 86,210.5C 85.6667,212.5 85.3333,214.5 85,216.5C 83.9887,217.337 82.8221,217.67 81.5,217.5C 80.4443,224.034 79.111,230.534 77.5,237C 78.9977,240.178 78.4977,243.011 76,245.5C 74.5391,261.585 74.0391,277.252 74.5,292.5C 77.1619,309.492 80.9953,326.158 86,342.5C 89.5012,346.48 91.5012,351.146 92,356.5C 92.9147,357.328 93.5814,358.328 94,359.5C 94.3333,359.167 94.6667,358.833 95,358.5C 97.7974,366.745 102.297,373.745 108.5,379.5C 109.239,379.369 109.906,379.536 110.5,380C 111.085,381.302 111.751,382.469 112.5,383.5C 114.335,387.288 116.668,390.788 119.5,394C 119.272,394.399 118.938,394.565 118.5,394.5C 116.825,392.998 114.992,391.665 113,390.5C 105.667,381.833 98.3333,373.167 91,364.5C 85.9665,356.432 81.4665,348.098 77.5,339.5C 77.5789,337.334 78.2455,335.334 79.5,333.5C 76.339,322.732 74.0056,311.732 72.5,300.5C 71.9702,287.661 71.6368,274.828 71.5,262C 71.8187,254.708 72.8187,247.542 74.5,240.5C 74.0814,239.328 73.4147,238.328 72.5,237.5C 75.2573,230.231 77.5907,222.898 79.5,215.5C 78.2348,212.78 79.0682,210.78 82,209.5C 82.7203,207.888 82.5536,206.388 81.5,205C 84,203.833 85.8333,202 87,199.5C 88.3306,193.586 90.8306,188.252 94.5,183.5C 94.2907,182.914 93.9574,182.414 93.5,182C 96.2951,178.98 98.9618,175.813 101.5,172.5C 102.333,170.5 103.167,168.5 104,166.5C 105.955,165.547 107.622,164.213 109,162.5C 111.447,158.396 113.447,154.062 115,149.5C 116.645,149.307 118.479,149.14 120.5,149C 123.887,144.651 127.054,140.151 130,135.5C 136.539,133.223 141.206,128.889 144,122.5C 144.333,122.833 144.667,123.167 145,123.5C 147,121.833 149,120.167 151,118.5C 151.333,118.833 151.667,119.167 152,119.5C 157.872,113.96 164.039,108.793 170.5,104C 174.801,104.283 178.134,102.783 180.5,99.5C 185.315,96.3011 190.648,94.4678 196.5,94C 195.672,93.0853 194.672,92.4186 193.5,92C 201.39,92.103 208.223,89.603 214,84.5C 214.893,85.0814 215.893,85.4148 217,85.5C 225.002,83.2854 233.168,81.4521 241.5,80C 257.864,78.9687 274.197,77.8021 290.5,76.5C 294.274,79.4026 298.107,79.7359 302,77.5C 302.903,78.7014 304.069,79.5348 305.5,80C 311.556,79.5864 316.889,81.253 321.5,85C 327.178,87.1279 332.845,89.1279 338.5,91C 341.924,91.7466 345.257,91.58 348.5,90.5 Z"/></g>
<g><path style="opacity:1" fill="#c5d5e7" d="M 178.5,45.5 C 155.205,52.9745 134.205,64.3078 115.5,79.5C 101.753,89.3183 89.2526,100.652 78,113.5C 67.4963,126.834 57.9963,140.834 49.5,155.5C 48.4138,155.38 47.7472,154.713 47.5,153.5C 49.0331,151.353 49.6997,149.186 49.5,147C 48.1356,144.339 46.4689,142.673 44.5,142C 44.6448,141.228 44.9781,140.561 45.5,140C 47.2556,139.798 48.9223,139.298 50.5,138.5C 49.5853,137.672 48.9186,136.672 48.5,135.5C 50.0347,132.871 51.368,130.204 52.5,127.5C 76.776,90.2259 109.109,62.2259 149.5,43.5C 152.588,43.6227 155.255,42.6227 157.5,40.5C 159.944,41.2217 162.278,42.2217 164.5,43.5C 169.405,42.0425 174.405,41.0425 179.5,40.5C 180.308,40.8076 180.975,41.3076 181.5,42C 179.574,42.4224 178.574,43.5891 178.5,45.5 Z"/></g>
<g><path style="opacity:0.008" fill="#93aec4" d="M 3.5,86.5 C 2.83333,85.1667 2.83333,85.1667 3.5,86.5 Z"/></g>
<g><path style="opacity:0.008" fill="#7c98ac" d="M 2.5,90.5 C 1.83333,89.1667 1.83333,89.1667 2.5,90.5 Z"/></g>
<g><path style="opacity:0.008" fill="#7a93b4" d="M 508.5,91.5 C 509.833,92.1667 509.833,92.1667 508.5,91.5 Z"/></g>
<g><path style="opacity:1" fill="#143e6f" d="M 313.5,91.5 C 278.587,89.7016 245.587,96.2016 214.5,111C 213.743,112.512 212.743,113.846 211.5,115C 214.29,114.353 216.956,114.519 219.5,115.5C 215.603,116.055 211.937,117.055 208.5,118.5C 204.085,118.861 200.085,120.194 196.5,122.5C 162.099,136.235 137.099,159.901 121.5,193.5C 121.167,193.5 120.833,193.5 120.5,193.5C 120.38,192.414 119.713,191.747 118.5,191.5C 116.864,192.304 115.364,193.304 114,194.5C 112.337,198.784 112.004,203.117 113,207.5C 111.84,209.797 110.84,209.464 110,206.5C 109.496,209.185 108.33,211.519 106.5,213.5C 107.101,216.243 105.767,217.576 102.5,217.5C 102.011,224.133 99.8438,230.133 96,235.5C 94.5692,243.12 92.7358,250.62 90.5,258C 91.0219,258.561 91.3552,259.228 91.5,260C 90.0573,264.037 89.224,268.203 89,272.5C 88.4261,282.37 87.5928,292.203 86.5,302C 89.4889,310.765 91.4889,320.431 92.5,331C 91.9781,331.561 91.6448,332.228 91.5,333C 95.2484,349.985 102.082,365.485 112,379.5C 112.49,380.793 112.657,382.127 112.5,383.5C 111.751,382.469 111.085,381.302 110.5,380C 109.906,379.536 109.239,379.369 108.5,379.5C 104.357,371.885 100.19,364.219 96,356.5C 92.666,347.485 90.8326,338.152 90.5,328.5C 89.5,328.5 88.5,328.5 87.5,328.5C 85.8506,318.568 84.8506,308.568 84.5,298.5C 84.7251,287.777 85.3918,277.111 86.5,266.5C 86.1667,265.833 85.8333,265.167 85.5,264.5C 86.6854,257.093 88.1854,249.76 90,242.5C 92.4494,241.123 92.9494,239.289 91.5,237C 93.5125,233.122 94.6792,228.956 95,224.5C 97.8681,219.2 99.8681,213.533 101,207.5C 102.011,206.663 103.178,206.33 104.5,206.5C 105.758,203.306 106.424,199.973 106.5,196.5C 107.5,196.5 108.5,196.5 109.5,196.5C 110.678,191.81 112.178,187.144 114,182.5C 118.975,180.291 121.808,176.457 122.5,171C 125.918,169.239 127.752,166.405 128,162.5C 130.057,160.731 131.89,158.731 133.5,156.5C 129.424,155.439 129.59,153.772 134,151.5C 134.49,152.793 134.657,154.127 134.5,155.5C 137.427,154.037 140.427,152.537 143.5,151C 143.043,150.586 142.709,150.086 142.5,149.5C 145.462,143.174 150.462,139.507 157.5,138.5C 158.806,137.088 159.64,135.421 160,133.5C 166.759,125.032 175.259,119.532 185.5,117C 186.38,115.644 186.714,114.144 186.5,112.5C 190.753,113.014 194.587,112.014 198,109.5C 198.333,109.833 198.667,110.167 199,110.5C 200.826,108.821 202.992,107.654 205.5,107C 203.068,105.913 203.402,105.413 206.5,105.5C 206.5,104.5 206.5,103.5 206.5,102.5C 211.214,102.827 215.88,102.493 220.5,101.5C 224.062,98.9105 229.062,96.5772 235.5,94.5C 237.061,95.3473 238.561,95.0139 240,93.5C 240.414,93.9574 240.914,94.2907 241.5,94.5C 264.155,88.6523 287.155,87.1523 310.5,90C 311.737,90.2321 312.737,90.7321 313.5,91.5 Z"/></g>
<g><path style="opacity:1" fill="#365e8f" d="M 241.5,46.5 C 251.839,46.3335 262.172,46.5002 272.5,47C 330.693,52.774 379.36,77.274 418.5,120.5C 416.692,121.317 415.192,120.65 414,118.5C 413.667,118.833 413.333,119.167 413,119.5C 411.43,118.386 410.097,117.053 409,115.5C 407.13,116.743 404.964,117.41 402.5,117.5C 400.5,117.167 398.5,116.833 396.5,116.5C 399.396,116.057 402.729,115.89 406.5,116C 407.167,114.667 408.167,113.667 409.5,113C 405.305,113.286 401.138,113.453 397,113.5C 394.094,112.617 392.927,110.617 393.5,107.5C 395.807,107.014 397.973,107.014 400,107.5C 400.617,104.824 399.784,104.157 397.5,105.5C 396.808,104.975 396.308,104.308 396,103.5C 395.311,104.357 394.478,105.023 393.5,105.5C 389.152,103.965 384.986,104.299 381,106.5C 380.333,107.167 380.333,107.833 381,108.5C 382.444,106.845 384.278,106.178 386.5,106.5C 386.5,107.833 386.5,109.167 386.5,110.5C 383.203,110.329 382.869,110.995 385.5,112.5C 385.376,113.107 385.043,113.44 384.5,113.5C 384.167,113.5 383.833,113.5 383.5,113.5C 372.628,104.628 360.961,96.9614 348.5,90.5C 300.807,65.5063 250.807,60.0063 198.5,74C 125.985,98.1295 80.152,147.296 61,221.5C 54.9837,257.798 58.3171,293.132 71,327.5C 73.2671,331.489 75.4338,335.489 77.5,339.5C 81.4665,348.098 85.9665,356.432 91,364.5C 98.3333,373.167 105.667,381.833 113,390.5C 114.992,391.665 116.825,392.998 118.5,394.5C 124.247,400.585 130.581,405.918 137.5,410.5C 136.127,410.343 134.793,410.51 133.5,411C 137.339,414.568 136.672,417.402 131.5,419.5C 133.5,420.167 135.5,420.833 137.5,421.5C 132.507,422.609 127.507,423.609 122.5,424.5C 67.5725,382.815 39.2391,327.315 37.5,258C 37.7439,248.796 38.4106,239.629 39.5,230.5C 49.1228,170.912 78.1228,123.245 126.5,87.5C 160.906,63.2995 199.239,49.6329 241.5,46.5 Z"/></g>
<g><path style="opacity:1" fill="#fafcfb" d="M 297.5,120.5 C 298.412,121.738 298.579,123.072 298,124.5C 289.303,137.699 280.803,151.033 272.5,164.5C 267.646,162.847 262.646,162.181 257.5,162.5C 257.167,162.5 256.833,162.5 256.5,162.5C 248.01,161.343 239.343,161.176 230.5,162C 225.892,163.035 221.559,164.535 217.5,166.5C 190.718,177.286 173.384,196.62 165.5,224.5C 164.883,224.611 164.383,224.944 164,225.5C 163.077,229.79 162.577,234.123 162.5,238.5C 162.5,238.833 162.5,239.167 162.5,239.5C 161.021,243.909 160.354,248.576 160.5,253.5C 160.429,259.068 161.096,264.401 162.5,269.5C 162.5,270.167 162.5,270.833 162.5,271.5C 162.336,274.187 162.503,276.854 163,279.5C 163.099,281.653 163.933,283.319 165.5,284.5C 167.602,292.705 171.269,300.038 176.5,306.5C 179.204,311.901 182.871,316.568 187.5,320.5C 191.019,323.421 194.686,326.087 198.5,328.5C 199.671,329.345 201.005,330.011 202.5,330.5C 207.731,333.43 213.398,334.596 219.5,334C 223.299,328.892 226.966,323.725 230.5,318.5C 232.49,340.809 233.156,363.475 232.5,386.5C 228.5,386.5 224.5,386.5 220.5,386.5C 211.046,386.012 202.046,384.012 193.5,380.5C 191.898,378.926 189.898,378.259 187.5,378.5C 185.967,376.755 183.967,375.755 181.5,375.5C 177.042,373.771 172.709,371.771 168.5,369.5C 146.9,355.634 130.9,336.967 120.5,313.5C 120.539,310.911 119.539,308.911 117.5,307.5C 115.964,302.891 114.63,298.224 113.5,293.5C 113.59,290.848 112.924,288.515 111.5,286.5C 110.178,279.918 109.511,273.251 109.5,266.5C 109.102,252.423 109.769,238.423 111.5,224.5C 111.629,222.784 111.962,221.117 112.5,219.5C 114.1,215.055 116.1,210.722 118.5,206.5C 119.41,202.112 120.41,197.778 121.5,193.5C 137.099,159.901 162.099,136.235 196.5,122.5C 200.767,121.744 204.767,120.411 208.5,118.5C 211.937,117.055 215.603,116.055 219.5,115.5C 246.033,110.359 272.033,112.026 297.5,120.5 Z"/></g>
<g><path style="opacity:1" fill="#98abbb" d="M 208.5,118.5 C 204.767,120.411 200.767,121.744 196.5,122.5C 200.085,120.194 204.085,118.861 208.5,118.5 Z"/></g>
<g><path style="opacity:1" fill="#86a4c9" d="M 115.5,79.5 C 120.301,79.3498 124.967,80.0165 129.5,81.5C 129.5,82.5 129.5,83.5 129.5,84.5C 127.396,84.2011 125.396,84.5344 123.5,85.5C 124.602,86.1757 125.602,86.8423 126.5,87.5C 78.1228,123.245 49.1228,170.912 39.5,230.5C 38.1873,234.944 37.354,239.611 37,244.5C 36.6667,251.5 36.3333,258.5 36,265.5C 35.0855,261.815 34.4189,262.148 34,266.5C 32.9114,259.191 31.0781,258.858 28.5,265.5C 27.7918,263.255 26.7918,261.255 25.5,259.5C 24.681,222.662 32.681,187.995 49.5,155.5C 57.9963,140.834 67.4963,126.834 78,113.5C 89.2526,100.652 101.753,89.3183 115.5,79.5 Z"/></g>
<g><path style="opacity:1" fill="#88a5c9" d="M 297.5,120.5 C 305.349,124.432 313.349,127.765 321.5,130.5C 320.5,130.5 319.5,130.5 318.5,130.5C 311.381,144.729 303.214,158.396 294,171.5C 293.53,172.577 293.697,173.577 294.5,174.5C 292.971,173.653 291.304,172.986 289.5,172.5C 283.032,174.1 276.699,176.1 270.5,178.5C 269.957,178.44 269.624,178.107 269.5,177.5C 272.395,174.036 273.728,170.036 273.5,165.5C 270.461,164.99 267.461,164.323 264.5,163.5C 261.941,163.802 259.607,163.468 257.5,162.5C 262.646,162.181 267.646,162.847 272.5,164.5C 280.803,151.033 289.303,137.699 298,124.5C 298.579,123.072 298.412,121.738 297.5,120.5 Z"/></g>
<g><path style="opacity:1" fill="#aac0dc" d="M 321.5,130.5 C 335.629,138.954 347.963,149.62 358.5,162.5C 365.246,172.314 371.246,182.648 376.5,193.5C 368.475,194.227 360.475,194.894 352.5,195.5C 339.833,195.5 327.167,195.5 314.5,195.5C 314.737,194.209 314.404,193.209 313.5,192.5C 308.428,185.093 302.095,179.093 294.5,174.5C 293.697,173.577 293.53,172.577 294,171.5C 303.214,158.396 311.381,144.729 318.5,130.5C 319.5,130.5 320.5,130.5 321.5,130.5 Z"/></g>
<g><path style="opacity:1" fill="#0d3460" d="M 330.5,92.5 C 324.839,92.0932 319.172,91.7599 313.5,91.5C 312.737,90.7321 311.737,90.2321 310.5,90C 287.155,87.1523 264.155,88.6523 241.5,94.5C 240.914,94.2907 240.414,93.9574 240,93.5C 238.561,95.0139 237.061,95.3473 235.5,94.5C 229.062,96.5772 224.062,98.9105 220.5,101.5C 215.88,102.493 211.214,102.827 206.5,102.5C 206.5,103.5 206.5,104.5 206.5,105.5C 203.402,105.413 203.068,105.913 205.5,107C 202.992,107.654 200.826,108.821 199,110.5C 198.667,110.167 198.333,109.833 198,109.5C 194.587,112.014 190.753,113.014 186.5,112.5C 186.714,114.144 186.38,115.644 185.5,117C 175.259,119.532 166.759,125.032 160,133.5C 159.64,135.421 158.806,137.088 157.5,138.5C 150.462,139.507 145.462,143.174 142.5,149.5C 142.709,150.086 143.043,150.586 143.5,151C 140.427,152.537 137.427,154.037 134.5,155.5C 134.657,154.127 134.49,152.793 134,151.5C 129.59,153.772 129.424,155.439 133.5,156.5C 131.89,158.731 130.057,160.731 128,162.5C 127.752,166.405 125.918,169.239 122.5,171C 121.808,176.457 118.975,180.291 114,182.5C 112.178,187.144 110.678,191.81 109.5,196.5C 108.5,196.5 107.5,196.5 106.5,196.5C 106.424,199.973 105.758,203.306 104.5,206.5C 103.178,206.33 102.011,206.663 101,207.5C 99.8681,213.533 97.8681,219.2 95,224.5C 94.6792,228.956 93.5125,233.122 91.5,237C 92.9494,239.289 92.4494,241.123 90,242.5C 88.1854,249.76 86.6854,257.093 85.5,264.5C 85.8333,265.167 86.1667,265.833 86.5,266.5C 85.3918,277.111 84.7251,287.777 84.5,298.5C 84.8506,308.568 85.8506,318.568 87.5,328.5C 88.5,328.5 89.5,328.5 90.5,328.5C 90.8326,338.152 92.666,347.485 96,356.5C 100.19,364.219 104.357,371.885 108.5,379.5C 102.297,373.745 97.7974,366.745 95,358.5C 94.6667,358.833 94.3333,359.167 94,359.5C 93.5814,358.328 92.9147,357.328 92,356.5C 91.5012,351.146 89.5012,346.48 86,342.5C 80.9953,326.158 77.1619,309.492 74.5,292.5C 74.0391,277.252 74.5391,261.585 76,245.5C 78.4977,243.011 78.9977,240.178 77.5,237C 79.111,230.534 80.4443,224.034 81.5,217.5C 82.8221,217.67 83.9887,217.337 85,216.5C 85.3333,214.5 85.6667,212.5 86,210.5C 88.8596,206.685 90.1929,202.352 90,197.5C 91.2051,196.929 92.3717,196.262 93.5,195.5C 92.1667,194.167 92.1667,192.833 93.5,191.5C 97.4397,188.886 99.1064,185.22 98.5,180.5C 99.552,180.649 100.552,180.483 101.5,180C 102.364,177.438 104.031,175.605 106.5,174.5C 107.89,172.831 108.223,171.164 107.5,169.5C 108.914,168.376 110.414,167.376 112,166.5C 112.26,164.382 113.26,162.716 115,161.5C 115.743,159.559 115.576,157.726 114.5,156C 116.131,154.164 116.798,154.664 116.5,157.5C 118.833,156.833 121.167,156.167 123.5,155.5C 123.343,154.127 123.51,152.793 124,151.5C 126.683,150.107 126.85,148.774 124.5,147.5C 127.291,146.27 129.958,144.77 132.5,143C 131.833,142.333 131.167,141.667 130.5,141C 134.94,141.587 137.44,139.421 138,134.5C 142.5,131.333 146.333,127.5 149.5,123C 152.475,123.225 155.475,122.725 158.5,121.5C 158.238,120.022 158.571,118.689 159.5,117.5C 162.291,116.27 164.958,114.77 167.5,113C 167.167,112.667 166.833,112.333 166.5,112C 170.249,109.966 174.249,108.299 178.5,107C 181.465,105.092 184.132,102.926 186.5,100.5C 192.737,98.2739 199.403,96.6072 206.5,95.5C 207.687,92.6334 209.687,90.3 212.5,88.5C 213.167,88.8333 213.833,89.1667 214.5,89.5C 220.469,87.3596 226.636,85.6929 233,84.5C 234.107,84.5852 235.107,84.9186 236,85.5C 239.477,83.7003 243.144,82.367 247,81.5C 247.667,82.1667 248.333,82.8333 249,83.5C 260.622,82.1344 272.289,80.801 284,79.5C 285.667,80.5 287.333,81.5 289,82.5C 289.772,82.3552 290.439,82.0219 291,81.5C 300.065,82.2335 308.899,83.2335 317.5,84.5C 317.33,85.8221 317.663,86.9887 318.5,88C 323.006,88.3852 327.006,89.8852 330.5,92.5 Z"/></g>
<g><path style="opacity:1" fill="#6087b3" d="M 449.5,116.5 C 458.039,126.061 465.039,136.728 470.5,148.5C 470.461,149.583 470.127,150.583 469.5,151.5C 470.167,152.5 470.833,153.5 471.5,154.5C 469.355,155.682 469.355,157.182 471.5,159C 471,159.5 470.5,160 470,160.5C 466.9,158.687 465.4,160.02 465.5,164.5C 458.352,149.532 449.685,135.532 439.5,122.5C 437.997,119.479 438.831,117.145 442,115.5C 443.395,116.815 444.395,116.481 445,114.5C 445.615,116.116 446.615,117.449 448,118.5C 448.717,117.956 449.217,117.289 449.5,116.5 Z"/></g>
<g><path style="opacity:1" fill="#7d9dc3" d="M 439.5,122.5 C 449.685,135.532 458.352,149.532 465.5,164.5C 469.192,174.513 472.859,184.513 476.5,194.5C 474.166,192.824 473.166,190.491 473.5,187.5C 472.167,187.5 470.833,187.5 469.5,187.5C 470.167,183.5 468.5,181.833 464.5,182.5C 464.263,179.788 464.263,177.288 464.5,175C 461.682,174.16 459.516,174.994 458,177.5C 457.667,176.833 457.333,176.167 457,175.5C 456.51,176.793 456.343,178.127 456.5,179.5C 448.253,161.02 437.92,143.687 425.5,127.5C 428.579,125.533 431.412,123.2 434,120.5C 435.401,122.192 437.234,122.859 439.5,122.5 Z"/></g>
<g><path style="opacity:1" fill="#09284d" d="M 237.5,162.5 C 245.002,163.304 252.669,163.97 260.5,164.5C 262.045,164.489 263.378,164.156 264.5,163.5C 267.461,164.323 270.461,164.99 273.5,165.5C 273.728,170.036 272.395,174.036 269.5,177.5C 269.624,178.107 269.957,178.44 270.5,178.5C 269.482,181.028 268.482,180.861 267.5,178C 268.856,176.433 269.523,174.6 269.5,172.5C 257.785,175.413 245.785,177.247 233.5,178C 227.296,181.123 220.963,183.957 214.5,186.5C 213.571,187.689 213.238,189.022 213.5,190.5C 210.181,192.142 206.847,193.809 203.5,195.5C 203.028,198.815 201.195,201.149 198,202.5C 195.223,208.5 191.556,213.834 187,218.5C 182.622,226.603 179.955,235.269 179,244.5C 178.25,245.126 177.416,245.626 176.5,246C 177.081,246.893 177.415,247.893 177.5,249C 176.708,254.505 175.874,260.005 175,265.5C 174.5,266 174,266.5 173.5,267C 174.63,277.828 175.963,288.661 177.5,299.5C 177.457,301.818 177.124,304.151 176.5,306.5C 171.269,300.038 167.602,292.705 165.5,284.5C 165.118,279.908 164.118,275.575 162.5,271.5C 162.5,270.833 162.5,270.167 162.5,269.5C 163.33,260.009 163.83,250.342 164,240.5C 164.721,235.059 165.888,229.726 167.5,224.5C 167.03,223.537 166.363,223.537 165.5,224.5C 173.384,196.62 190.718,177.286 217.5,166.5C 224.108,164.848 230.775,163.514 237.5,162.5 Z"/></g>
<g><path style="opacity:1" fill="#000438" d="M 237.5,162.5 C 243.833,162.5 250.167,162.5 256.5,162.5C 256.833,162.5 257.167,162.5 257.5,162.5C 259.607,163.468 261.941,163.802 264.5,163.5C 263.378,164.156 262.045,164.489 260.5,164.5C 252.669,163.97 245.002,163.304 237.5,162.5 Z"/></g>
<g><path style="opacity:1" fill="#7d8490" d="M 256.5,162.5 C 250.167,162.5 243.833,162.5 237.5,162.5C 230.775,163.514 224.108,164.848 217.5,166.5C 221.559,164.535 225.892,163.035 230.5,162C 239.343,161.176 248.01,161.343 256.5,162.5 Z"/></g>
<g><path style="opacity:1" fill="#07284e" d="M 348.5,90.5 C 345.257,91.58 341.924,91.7466 338.5,91C 332.845,89.1279 327.178,87.1279 321.5,85C 316.889,81.253 311.556,79.5864 305.5,80C 304.069,79.5348 302.903,78.7014 302,77.5C 298.107,79.7359 294.274,79.4026 290.5,76.5C 274.197,77.8021 257.864,78.9687 241.5,80C 233.168,81.4521 225.002,83.2854 217,85.5C 215.893,85.4148 214.893,85.0814 214,84.5C 208.223,89.603 201.39,92.103 193.5,92C 194.672,92.4186 195.672,93.0853 196.5,94C 190.648,94.4678 185.315,96.3011 180.5,99.5C 178.134,102.783 174.801,104.283 170.5,104C 164.039,108.793 157.872,113.96 152,119.5C 151.667,119.167 151.333,118.833 151,118.5C 149,120.167 147,121.833 145,123.5C 144.667,123.167 144.333,122.833 144,122.5C 141.206,128.889 136.539,133.223 130,135.5C 127.054,140.151 123.887,144.651 120.5,149C 118.479,149.14 116.645,149.307 115,149.5C 113.447,154.062 111.447,158.396 109,162.5C 107.622,164.213 105.955,165.547 104,166.5C 103.167,168.5 102.333,170.5 101.5,172.5C 98.9618,175.813 96.2951,178.98 93.5,182C 93.9574,182.414 94.2907,182.914 94.5,183.5C 90.8306,188.252 88.3306,193.586 87,199.5C 85.8333,202 84,203.833 81.5,205C 82.5536,206.388 82.7203,207.888 82,209.5C 79.0682,210.78 78.2348,212.78 79.5,215.5C 77.5907,222.898 75.2573,230.231 72.5,237.5C 73.4147,238.328 74.0814,239.328 74.5,240.5C 72.8187,247.542 71.8187,254.708 71.5,262C 71.6368,274.828 71.9702,287.661 72.5,300.5C 74.0056,311.732 76.339,322.732 79.5,333.5C 78.2455,335.334 77.5789,337.334 77.5,339.5C 75.4338,335.489 73.2671,331.489 71,327.5C 58.3171,293.132 54.9837,257.798 61,221.5C 80.152,147.296 125.985,98.1295 198.5,74C 250.807,60.0063 300.807,65.5063 348.5,90.5 Z"/></g>
<g><path style="opacity:1" fill="#09294e" d="M 358.5,162.5 C 363.812,166.149 368.145,170.816 371.5,176.5C 372.031,178.544 373.198,180.211 375,181.5C 375.283,186.737 377.616,190.737 382,193.5C 380.705,197.381 382.205,199.048 386.5,198.5C 385.711,201.434 383.711,203.268 380.5,204C 381.711,204.893 381.711,205.726 380.5,206.5C 371.617,206.34 362.783,206.34 354,206.5C 352.562,207.718 350.895,208.385 349,208.5C 345.139,206.934 341.306,205.267 337.5,203.5C 337.167,203.833 336.833,204.167 336.5,204.5C 337.383,205.548 338.05,206.715 338.5,208C 338.164,209.03 337.497,209.53 336.5,209.5C 333.189,204.555 329.189,200.222 324.5,196.5C 334.015,196.827 343.348,196.494 352.5,195.5C 360.475,194.894 368.475,194.227 376.5,193.5C 371.246,182.648 365.246,172.314 358.5,162.5 Z"/></g>
<g><path style="opacity:1" fill="#88a5c9" d="M 476.5,194.5 C 480.445,206.501 482.778,218.834 483.5,231.5C 482.532,229.393 482.198,227.059 482.5,224.5C 480.857,224.52 479.524,223.853 478.5,222.5C 477.703,226.842 476.87,231.176 476,235.5C 474.956,234.377 474.29,233.044 474,231.5C 473.83,233.715 473.163,235.715 472,237.5C 471.831,249.341 471.331,261.007 470.5,272.5C 471.648,249.569 469.815,226.902 465,204.5C 461.87,196.276 459.036,187.943 456.5,179.5C 456.343,178.127 456.51,176.793 457,175.5C 457.333,176.167 457.667,176.833 458,177.5C 459.516,174.994 461.682,174.16 464.5,175C 464.263,177.288 464.263,179.788 464.5,182.5C 468.5,181.833 470.167,183.5 469.5,187.5C 470.833,187.5 472.167,187.5 473.5,187.5C 473.166,190.491 474.166,192.824 476.5,194.5 Z"/></g>
<g><path style="opacity:1" fill="#b6cae1" d="M 52.5,127.5 C 51.368,130.204 50.0347,132.871 48.5,135.5C 48.9186,136.672 49.5853,137.672 50.5,138.5C 48.9223,139.298 47.2556,139.798 45.5,140C 44.9781,140.561 44.6448,141.228 44.5,142C 46.4689,142.673 48.1356,144.339 49.5,147C 49.6997,149.186 49.0331,151.353 47.5,153.5C 47.7472,154.713 48.4138,155.38 49.5,155.5C 32.681,187.995 24.681,222.662 25.5,259.5C 25.5,266.167 25.5,272.833 25.5,279.5C 25.8747,282.397 25.3747,285.063 24,287.5C 23.3333,286.833 22.6667,286.167 22,285.5C 21.19,278.918 21.3567,272.418 22.5,266C 21.2161,265.316 20.0495,265.483 19,266.5C 17.6337,270.396 16.467,274.396 15.5,278.5C 13.2343,261.543 12.9009,244.543 14.5,227.5C 17.8807,199.633 26.0474,173.3 39,148.5C 42.1861,143.279 45.1861,137.946 48,132.5C 49.0491,130.382 50.5491,128.716 52.5,127.5 Z"/></g>
<g><path style="opacity:1" fill="#fafbfb" d="M 259.5,196.5 C 263.846,196.334 268.179,196.501 272.5,197C 276.418,202.069 280.085,207.236 283.5,212.5C 319.774,268.105 356.441,323.438 393.5,378.5C 375.197,380.487 356.53,381.154 337.5,380.5C 331.663,370.154 325.33,360.154 318.5,350.5C 317.126,346.391 314.792,343.057 311.5,340.5C 309.336,335.5 306.669,330.833 303.5,326.5C 299.485,319.798 295.485,313.131 291.5,306.5C 290.058,305.18 289.392,303.514 289.5,301.5C 273.5,301.5 257.5,301.5 241.5,301.5C 241.5,300.5 241.5,299.5 241.5,298.5C 249.088,288.4 256.921,278.4 265,268.5C 265.667,267.5 265.667,266.5 265,265.5C 263.541,263.568 262.375,261.568 261.5,259.5C 260.998,257.915 259.998,257.415 258.5,258C 255.974,261.026 253.64,264.193 251.5,267.5C 237.182,268.499 222.849,268.833 208.5,268.5C 224.999,244.178 241.999,220.178 259.5,196.5 Z"/></g>
<g><path style="opacity:1" fill="#144071" d="M 312.5,194.5 C 313.338,194.158 313.672,193.492 313.5,192.5C 314.404,193.209 314.737,194.209 314.5,195.5C 327.167,195.5 339.833,195.5 352.5,195.5C 343.348,196.494 334.015,196.827 324.5,196.5C 322.167,196.5 319.833,196.5 317.5,196.5C 317.5,197.5 317.5,198.5 317.5,199.5C 313.802,199.4 310.635,198.067 308,195.5C 303.572,196.704 299.072,197.537 294.5,198C 296.497,199.153 296.83,200.653 295.5,202.5C 291.553,200.882 287.72,199.882 284,199.5C 282.649,200.961 281.149,202.294 279.5,203.5C 277.15,200.662 275.483,197.495 274.5,194C 270.999,193.664 267.499,193.831 264,194.5C 262.014,194.569 260.514,195.235 259.5,196.5C 255.818,196.335 252.152,196.501 248.5,197C 231.701,220.108 215.035,243.274 198.5,266.5C 197.504,266.586 196.671,266.252 196,265.5C 195.424,267.377 195.591,269.211 196.5,271C 191.277,286.12 191.444,301.287 197,316.5C 197.969,319.955 199.969,322.622 203,324.5C 203.789,326.712 203.622,328.712 202.5,330.5C 201.005,330.011 199.671,329.345 198.5,328.5C 197.877,322.439 196.043,316.439 193,310.5C 191.631,300.04 190.131,289.707 188.5,279.5C 188.837,273.127 189.504,266.793 190.5,260.5C 190.392,259.558 190.059,258.725 189.5,258C 194.032,253.244 195.366,247.744 193.5,241.5C 194.5,241.5 195.5,241.5 196.5,241.5C 196.5,240.5 196.5,239.5 196.5,238.5C 197.5,238.5 198.5,238.5 199.5,238.5C 198.894,235.084 199.894,232.418 202.5,230.5C 204.236,226.249 205.57,221.916 206.5,217.5C 209.044,217.896 211.211,217.229 213,215.5C 213.157,213.005 213.324,210.672 213.5,208.5C 214.842,207.098 215.676,207.431 216,209.5C 218.507,205.056 222.341,203.056 227.5,203.5C 227.5,202.5 227.5,201.5 227.5,200.5C 231.886,201.231 234.72,199.564 236,195.5C 237.512,194.743 238.846,193.743 240,192.5C 242.401,193.602 244.901,193.769 247.5,193C 248.126,192.25 248.626,191.416 249,190.5C 257.298,190.909 265.798,191.242 274.5,191.5C 279.053,188.684 281.72,190.018 282.5,195.5C 285.156,196.158 287.822,196.825 290.5,197.5C 297.647,195.19 304.98,194.19 312.5,194.5 Z"/></g>
<g><path style="opacity:1" fill="#3d6596" d="M 418.5,120.5 C 420.605,123.027 422.939,125.36 425.5,127.5C 437.92,143.687 448.253,161.02 456.5,179.5C 459.036,187.943 461.87,196.276 465,204.5C 469.815,226.902 471.648,249.569 470.5,272.5C 469.685,282.241 468.352,291.907 466.5,301.5C 462.854,317.45 457.521,332.783 450.5,347.5C 441.296,365.914 429.629,382.581 415.5,397.5C 411.086,392.344 407.419,386.677 404.5,380.5C 447.778,327.669 460.278,268.002 442,201.5C 437.369,187.237 431.369,173.57 424,160.5C 417,151.167 410,141.833 403,132.5C 396.603,126.271 390.436,119.938 384.5,113.5C 385.043,113.44 385.376,113.107 385.5,112.5C 382.869,110.995 383.203,110.329 386.5,110.5C 386.5,109.167 386.5,107.833 386.5,106.5C 384.278,106.178 382.444,106.845 381,108.5C 380.333,107.833 380.333,107.167 381,106.5C 384.986,104.299 389.152,103.965 393.5,105.5C 394.478,105.023 395.311,104.357 396,103.5C 396.308,104.308 396.808,104.975 397.5,105.5C 399.784,104.157 400.617,104.824 400,107.5C 397.973,107.014 395.807,107.014 393.5,107.5C 392.927,110.617 394.094,112.617 397,113.5C 401.138,113.453 405.305,113.286 409.5,113C 408.167,113.667 407.167,114.667 406.5,116C 402.729,115.89 399.396,116.057 396.5,116.5C 398.5,116.833 400.5,117.167 402.5,117.5C 404.964,117.41 407.13,116.743 409,115.5C 410.097,117.053 411.43,118.386 413,119.5C 413.333,119.167 413.667,118.833 414,118.5C 415.192,120.65 416.692,121.317 418.5,120.5 Z"/></g>
<g><path style="opacity:1" fill="#c3d2db" d="M 120.5,193.5 C 120.833,193.5 121.167,193.5 121.5,193.5C 120.41,197.778 119.41,202.112 118.5,206.5C 116.1,210.722 114.1,215.055 112.5,219.5C 114.562,210.648 117.228,201.981 120.5,193.5 Z"/></g>
<g><path style="opacity:1" fill="#0c315b" d="M 371.5,176.5 C 374.85,179.351 378.017,182.351 381,185.5C 385.362,192.914 390.196,199.914 395.5,206.5C 395.683,208.936 395.016,211.103 393.5,213C 395.029,215.736 396.529,215.902 398,213.5C 398.273,215.329 399.107,216.829 400.5,218C 395.526,219.93 390.359,221.43 385,222.5C 383.674,221.201 382.34,219.868 381,218.5C 380,219.833 379,219.833 378,218.5C 376.812,219.563 376.312,220.897 376.5,222.5C 368.352,222.404 360.352,222.071 352.5,221.5C 351.483,224.028 350.316,224.028 349,221.5C 348.665,224.19 347.499,224.857 345.5,223.5C 342.336,218.922 339.336,214.255 336.5,209.5C 337.497,209.53 338.164,209.03 338.5,208C 338.05,206.715 337.383,205.548 336.5,204.5C 336.833,204.167 337.167,203.833 337.5,203.5C 341.306,205.267 345.139,206.934 349,208.5C 350.895,208.385 352.562,207.718 354,206.5C 362.783,206.34 371.617,206.34 380.5,206.5C 381.711,205.726 381.711,204.893 380.5,204C 383.711,203.268 385.711,201.434 386.5,198.5C 382.205,199.048 380.705,197.381 382,193.5C 377.616,190.737 375.283,186.737 375,181.5C 373.198,180.211 372.031,178.544 371.5,176.5 Z"/></g>
<g><path style="opacity:1" fill="#0b2e57" d="M 270.5,178.5 C 276.699,176.1 283.032,174.1 289.5,172.5C 291.304,172.986 292.971,173.653 294.5,174.5C 302.095,179.093 308.428,185.093 313.5,192.5C 313.672,193.492 313.338,194.158 312.5,194.5C 312.092,193.357 311.425,192.357 310.5,191.5C 307.792,191.166 305.125,191.666 302.5,193C 296.5,193.667 290.5,193.667 284.5,193C 278.975,186.969 272.308,182.802 264.5,180.5C 257.262,181.51 250.096,182.843 243,184.5C 241.893,184.415 240.893,184.081 240,183.5C 236.776,184.688 233.943,186.522 231.5,189C 230.207,189.49 228.873,189.657 227.5,189.5C 227.5,190.5 227.5,191.5 227.5,192.5C 225.076,192.192 222.743,192.526 220.5,193.5C 217.95,197.718 214.284,200.385 209.5,201.5C 210.089,203.373 209.422,205.04 207.5,206.5C 206.749,205.624 206.249,204.624 206,203.5C 204.961,207.934 202.961,211.934 200,215.5C 199.506,217.134 199.34,218.801 199.5,220.5C 197.692,220.491 196.025,220.991 194.5,222C 194.833,222.333 195.167,222.667 195.5,223C 193.623,225.126 192.623,227.626 192.5,230.5C 191.178,230.33 190.011,230.663 189,231.5C 183.691,247.048 181.358,263.048 182,279.5C 182.5,280 183,280.5 183.5,281C 182.866,283.075 182.532,285.241 182.5,287.5C 182.59,289.964 183.257,292.13 184.5,294C 183.398,296.401 183.231,298.901 184,301.5C 185.774,306.205 187.274,311.038 188.5,316C 188.011,317.564 187.678,319.064 187.5,320.5C 182.871,316.568 179.204,311.901 176.5,306.5C 177.124,304.151 177.457,301.818 177.5,299.5C 175.963,288.661 174.63,277.828 173.5,267C 174,266.5 174.5,266 175,265.5C 175.874,260.005 176.708,254.505 177.5,249C 177.415,247.893 177.081,246.893 176.5,246C 177.416,245.626 178.25,245.126 179,244.5C 179.955,235.269 182.622,226.603 187,218.5C 191.556,213.834 195.223,208.5 198,202.5C 201.195,201.149 203.028,198.815 203.5,195.5C 206.847,193.809 210.181,192.142 213.5,190.5C 213.238,189.022 213.571,187.689 214.5,186.5C 220.963,183.957 227.296,181.123 233.5,178C 245.785,177.247 257.785,175.413 269.5,172.5C 269.523,174.6 268.856,176.433 267.5,178C 268.482,180.861 269.482,181.028 270.5,178.5 Z"/></g>
<g><path style="opacity:1" fill="#1d4b82" d="M 313.5,91.5 C 319.172,91.7599 324.839,92.0932 330.5,92.5C 341.826,95.5761 352.826,99.4094 363.5,104C 369.786,107.927 376.119,111.76 382.5,115.5C 383.298,115.043 383.631,114.376 383.5,113.5C 383.833,113.5 384.167,113.5 384.5,113.5C 390.436,119.938 396.603,126.271 403,132.5C 410,141.833 417,151.167 424,160.5C 431.369,173.57 437.369,187.237 442,201.5C 460.278,268.002 447.778,327.669 404.5,380.5C 403.833,380.167 403.167,379.833 402.5,379.5C 400.161,375.643 397.994,371.643 396,367.5C 391.557,363.363 388.224,358.363 386,352.5C 375,337.167 364,321.833 353,306.5C 346.757,295.254 340.09,284.254 333,273.5C 332,272.833 331,272.167 330,271.5C 323.538,259.368 315.871,248.034 307,237.5C 305.939,234.378 304.606,231.378 303,228.5C 297.345,222.096 290.845,216.762 283.5,212.5C 280.085,207.236 276.418,202.069 272.5,197C 268.179,196.501 263.846,196.334 259.5,196.5C 260.514,195.235 262.014,194.569 264,194.5C 267.499,193.831 270.999,193.664 274.5,194C 275.483,197.495 277.15,200.662 279.5,203.5C 281.149,202.294 282.649,200.961 284,199.5C 287.72,199.882 291.553,200.882 295.5,202.5C 296.83,200.653 296.497,199.153 294.5,198C 299.072,197.537 303.572,196.704 308,195.5C 310.635,198.067 313.802,199.4 317.5,199.5C 317.5,198.5 317.5,197.5 317.5,196.5C 319.833,196.5 322.167,196.5 324.5,196.5C 329.189,200.222 333.189,204.555 336.5,209.5C 339.336,214.255 342.336,218.922 345.5,223.5C 345.539,224.583 345.873,225.583 346.5,226.5C 367.159,227.666 387.825,227.833 408.5,227C 408.833,226.667 409.167,226.333 409.5,226C 405.681,218.85 401.014,212.35 395.5,206.5C 390.196,199.914 385.362,192.914 381,185.5C 378.017,182.351 374.85,179.351 371.5,176.5C 368.145,170.816 363.812,166.149 358.5,162.5C 347.963,149.62 335.629,138.954 321.5,130.5C 313.349,127.765 305.349,124.432 297.5,120.5C 272.033,112.026 246.033,110.359 219.5,115.5C 216.956,114.519 214.29,114.353 211.5,115C 212.743,113.846 213.743,112.512 214.5,111C 245.587,96.2016 278.587,89.7016 313.5,91.5 Z"/></g>
<g><path style="opacity:1" fill="#113c69" d="M 395.5,206.5 C 401.014,212.35 405.681,218.85 409.5,226C 409.167,226.333 408.833,226.667 408.5,227C 387.825,227.833 367.159,227.666 346.5,226.5C 345.873,225.583 345.539,224.583 345.5,223.5C 347.499,224.857 348.665,224.19 349,221.5C 350.316,224.028 351.483,224.028 352.5,221.5C 360.352,222.071 368.352,222.404 376.5,222.5C 376.312,220.897 376.812,219.563 378,218.5C 379,219.833 380,219.833 381,218.5C 382.34,219.868 383.674,221.201 385,222.5C 390.359,221.43 395.526,219.93 400.5,218C 399.107,216.829 398.273,215.329 398,213.5C 396.529,215.902 395.029,215.736 393.5,213C 395.016,211.103 395.683,208.936 395.5,206.5 Z"/></g>
<g><path style="opacity:1" fill="#0e3663" d="M 312.5,194.5 C 304.98,194.19 297.647,195.19 290.5,197.5C 287.822,196.825 285.156,196.158 282.5,195.5C 281.72,190.018 279.053,188.684 274.5,191.5C 265.798,191.242 257.298,190.909 249,190.5C 248.626,191.416 248.126,192.25 247.5,193C 244.901,193.769 242.401,193.602 240,192.5C 238.846,193.743 237.512,194.743 236,195.5C 234.72,199.564 231.886,201.231 227.5,200.5C 227.5,201.5 227.5,202.5 227.5,203.5C 222.341,203.056 218.507,205.056 216,209.5C 215.676,207.431 214.842,207.098 213.5,208.5C 213.324,210.672 213.157,213.005 213,215.5C 211.211,217.229 209.044,217.896 206.5,217.5C 205.57,221.916 204.236,226.249 202.5,230.5C 199.894,232.418 198.894,235.084 199.5,238.5C 198.5,238.5 197.5,238.5 196.5,238.5C 196.5,239.5 196.5,240.5 196.5,241.5C 195.5,241.5 194.5,241.5 193.5,241.5C 195.366,247.744 194.032,253.244 189.5,258C 190.059,258.725 190.392,259.558 190.5,260.5C 189.504,266.793 188.837,273.127 188.5,279.5C 190.131,289.707 191.631,300.04 193,310.5C 196.043,316.439 197.877,322.439 198.5,328.5C 194.686,326.087 191.019,323.421 187.5,320.5C 187.678,319.064 188.011,317.564 188.5,316C 187.274,311.038 185.774,306.205 184,301.5C 183.231,298.901 183.398,296.401 184.5,294C 183.257,292.13 182.59,289.964 182.5,287.5C 182.532,285.241 182.866,283.075 183.5,281C 183,280.5 182.5,280 182,279.5C 181.358,263.048 183.691,247.048 189,231.5C 190.011,230.663 191.178,230.33 192.5,230.5C 192.623,227.626 193.623,225.126 195.5,223C 195.167,222.667 194.833,222.333 194.5,222C 196.025,220.991 197.692,220.491 199.5,220.5C 199.34,218.801 199.506,217.134 200,215.5C 202.961,211.934 204.961,207.934 206,203.5C 206.249,204.624 206.749,205.624 207.5,206.5C 209.422,205.04 210.089,203.373 209.5,201.5C 214.284,200.385 217.95,197.718 220.5,193.5C 222.743,192.526 225.076,192.192 227.5,192.5C 227.5,191.5 227.5,190.5 227.5,189.5C 228.873,189.657 230.207,189.49 231.5,189C 233.943,186.522 236.776,184.688 240,183.5C 240.893,184.081 241.893,184.415 243,184.5C 250.096,182.843 257.262,181.51 264.5,180.5C 272.308,182.802 278.975,186.969 284.5,193C 290.5,193.667 296.5,193.667 302.5,193C 305.125,191.666 307.792,191.166 310.5,191.5C 311.425,192.357 312.092,193.357 312.5,194.5 Z"/></g>
<g><path style="opacity:1" fill="#8990a2" d="M 165.5,224.5 C 164.99,229.391 163.99,234.058 162.5,238.5C 162.577,234.123 163.077,229.79 164,225.5C 164.383,224.944 164.883,224.611 165.5,224.5 Z"/></g>
<g><path style="opacity:1" fill="#4c76a7" d="M 470.5,148.5 C 495.207,193.721 503.54,242.054 495.5,293.5C 492.44,308.503 488.607,323.503 484,338.5C 478.09,352.244 471.423,365.577 464,378.5C 459.91,383.428 456.41,388.761 453.5,394.5C 446.899,395.827 440.233,396.493 433.5,396.5C 443.649,384.875 452.316,372.208 459.5,358.5C 468.754,342.755 475.087,325.755 478.5,307.5C 484.492,284.709 486.659,261.376 485,237.5C 484.809,235.292 484.309,233.292 483.5,231.5C 482.778,218.834 480.445,206.501 476.5,194.5C 472.859,184.513 469.192,174.513 465.5,164.5C 465.4,160.02 466.9,158.687 470,160.5C 470.5,160 471,159.5 471.5,159C 469.355,157.182 469.355,155.682 471.5,154.5C 470.833,153.5 470.167,152.5 469.5,151.5C 470.127,150.583 470.461,149.583 470.5,148.5 Z"/></g>
<g><path style="opacity:1" fill="#8aa6c9" d="M 259.5,196.5 C 241.999,220.178 224.999,244.178 208.5,268.5C 204.671,269.069 201.337,268.402 198.5,266.5C 215.035,243.274 231.701,220.108 248.5,197C 252.152,196.501 255.818,196.335 259.5,196.5 Z"/></g>
<g><path style="opacity:1" fill="#00073e" d="M 162.5,269.5 C 162.5,259.5 162.5,249.5 162.5,239.5C 162.5,239.167 162.5,238.833 162.5,238.5C 163.99,234.058 164.99,229.391 165.5,224.5C 166.363,223.537 167.03,223.537 167.5,224.5C 165.888,229.726 164.721,235.059 164,240.5C 163.83,250.342 163.33,260.009 162.5,269.5 Z"/></g>
<g><path style="opacity:1" fill="#858b9a" d="M 162.5,239.5 C 162.5,249.5 162.5,259.5 162.5,269.5C 161.096,264.401 160.429,259.068 160.5,253.5C 160.354,248.576 161.021,243.909 162.5,239.5 Z"/></g>
<g><path style="opacity:1" fill="#b3c1ce" d="M 111.5,224.5 C 109.769,238.423 109.102,252.423 109.5,266.5C 108.341,255.674 108.174,244.674 109,233.5C 109.406,230.258 110.239,227.258 111.5,224.5 Z"/></g>
<g><path style="opacity:1" fill="#9cb6d3" d="M 483.5,231.5 C 484.309,233.292 484.809,235.292 485,237.5C 486.659,261.376 484.492,284.709 478.5,307.5C 479.924,298.903 480.59,290.236 480.5,281.5C 478.876,281.64 477.71,280.973 477,279.5C 476.959,283.43 476.793,287.263 476.5,291C 474.19,291.497 471.857,291.663 469.5,291.5C 469.41,295.214 468.41,298.548 466.5,301.5C 468.352,291.907 469.685,282.241 470.5,272.5C 471.331,261.007 471.831,249.341 472,237.5C 473.163,235.715 473.83,233.715 474,231.5C 474.29,233.044 474.956,234.377 476,235.5C 476.87,231.176 477.703,226.842 478.5,222.5C 479.524,223.853 480.857,224.52 482.5,224.5C 482.198,227.059 482.532,229.393 483.5,231.5 Z"/></g>
<g><path style="opacity:1" fill="#4b627f" d="M 261.5,259.5 C 259.967,263.704 257.3,267.037 253.5,269.5C 244.833,269.5 236.167,269.5 227.5,269.5C 220.978,269.823 214.645,269.49 208.5,268.5C 222.849,268.833 237.182,268.499 251.5,267.5C 253.64,264.193 255.974,261.026 258.5,258C 259.998,257.415 260.998,257.915 261.5,259.5 Z"/></g>
<g><path style="opacity:1" fill="#0a2e54" d="M 227.5,269.5 C 236.167,269.5 244.833,269.5 253.5,269.5C 248.075,277.353 242.408,285.02 236.5,292.5C 233.79,290.055 230.956,287.722 228,285.5C 227.51,284.207 227.343,282.873 227.5,281.5C 223.651,281.981 221.651,280.314 221.5,276.5C 220.5,276.5 219.5,276.5 218.5,276.5C 217.565,273.081 215.232,271.247 211.5,271C 217.016,270.827 222.349,270.327 227.5,269.5 Z"/></g>
<g><path style="opacity:1" fill="#9da7b0" d="M 162.5,271.5 C 164.118,275.575 165.118,279.908 165.5,284.5C 163.933,283.319 163.099,281.653 163,279.5C 162.503,276.854 162.336,274.187 162.5,271.5 Z"/></g>
<g><path style="opacity:1" fill="#7a99be" d="M 261.5,259.5 C 262.375,261.568 263.541,263.568 265,265.5C 265.667,266.5 265.667,267.5 265,268.5C 256.921,278.4 249.088,288.4 241.5,298.5C 239.204,298.804 238.871,299.804 240.5,301.5C 236.988,302.055 233.988,301.388 231.5,299.5C 233.555,297.445 235.221,295.112 236.5,292.5C 242.408,285.02 248.075,277.353 253.5,269.5C 257.3,267.037 259.967,263.704 261.5,259.5 Z"/></g>
<g><path style="opacity:1" fill="#748da7" d="M 111.5,286.5 C 112.924,288.515 113.59,290.848 113.5,293.5C 112.076,291.485 111.41,289.152 111.5,286.5 Z"/></g>
<g><path style="opacity:1" fill="#406b99" d="M 231.5,299.5 C 233.988,301.388 236.988,302.055 240.5,301.5C 238.251,307.005 235.251,312.005 231.5,316.5C 231.189,310.633 231.189,304.966 231.5,299.5 Z"/></g>
<g><path style="opacity:1" fill="#a3bad7" d="M 14.5,227.5 C 12.9009,244.543 13.2343,261.543 15.5,278.5C 16.467,274.396 17.6337,270.396 19,266.5C 20.0495,265.483 21.2161,265.316 22.5,266C 21.3567,272.418 21.19,278.918 22,285.5C 22.6667,286.167 23.3333,286.833 24,287.5C 25.3747,285.063 25.8747,282.397 25.5,279.5C 28.2106,297.376 32.2106,315.043 37.5,332.5C 37.1115,336.901 37.9449,341.235 40,345.5C 43.4174,347.072 43.2507,348.239 39.5,349C 39.9574,349.414 40.2907,349.914 40.5,350.5C 39.635,351.583 38.635,351.749 37.5,351C 35.188,348.586 33.5213,345.753 32.5,342.5C 31.675,341.614 30.675,341.281 29.5,341.5C 28.6955,338.558 27.3622,335.891 25.5,333.5C 13.5706,299 9.9039,263.667 14.5,227.5 Z"/></g>
<g><path style="opacity:1" fill="#a0bad7" d="M 241.5,298.5 C 241.5,299.5 241.5,300.5 241.5,301.5C 257.5,301.5 273.5,301.5 289.5,301.5C 289.392,303.514 290.058,305.18 291.5,306.5C 271.209,332.392 251.876,359.058 233.5,386.5C 229.016,387.811 224.683,387.811 220.5,386.5C 224.5,386.5 228.5,386.5 232.5,386.5C 233.156,363.475 232.49,340.809 230.5,318.5C 230.833,317.833 231.167,317.167 231.5,316.5C 235.251,312.005 238.251,307.005 240.5,301.5C 238.871,299.804 239.204,298.804 241.5,298.5 Z"/></g>
<g><path style="opacity:1" fill="#8897b4" d="M 117.5,307.5 C 119.539,308.911 120.539,310.911 120.5,313.5C 118.992,311.819 117.992,309.819 117.5,307.5 Z"/></g>
<g><path style="opacity:1" fill="#08284e" d="M 291.5,306.5 C 295.485,313.131 299.485,319.798 303.5,326.5C 302.769,326.942 301.769,327.109 300.5,327C 300.833,327.333 301.167,327.667 301.5,328C 300.291,331.037 299.457,334.204 299,337.5C 296.333,339.5 293.667,341.5 291,343.5C 289.5,346.333 288,349.167 286.5,352C 286.833,352.333 287.167,352.667 287.5,353C 285.328,353.587 283.828,355.42 283,358.5C 282.51,359.793 282.343,361.127 282.5,362.5C 281.178,362.33 280.011,362.663 279,363.5C 276.907,367.998 274.74,372.332 272.5,376.5C 271.448,376.351 270.448,376.517 269.5,377C 268.099,379.531 266.433,381.864 264.5,384C 263.552,384.483 262.552,384.649 261.5,384.5C 261.665,387.518 261.498,390.518 261,393.5C 259.26,394.716 258.26,396.382 258,398.5C 254.38,400.453 251.38,403.119 249,406.5C 248.517,405.552 248.351,404.552 248.5,403.5C 245.813,403.336 243.146,403.503 240.5,404C 240.957,404.414 241.291,404.914 241.5,405.5C 240.5,405.833 239.5,406.167 238.5,406.5C 236.012,405.851 233.678,404.851 231.5,403.5C 229.404,404.26 227.404,404.26 225.5,403.5C 223.311,405.499 220.978,405.333 218.5,403C 214.49,402.499 210.49,401.999 206.5,401.5C 191.857,393.179 179.19,382.512 168.5,369.5C 172.709,371.771 177.042,373.771 181.5,375.5C 183.033,377.245 185.033,378.245 187.5,378.5C 189.102,380.074 191.102,380.741 193.5,380.5C 202.046,384.012 211.046,386.012 220.5,386.5C 224.683,387.811 229.016,387.811 233.5,386.5C 251.876,359.058 271.209,332.392 291.5,306.5 Z"/></g>
<g><path style="opacity:1" fill="#18457b" d="M 198.5,266.5 C 201.337,268.402 204.671,269.069 208.5,268.5C 214.645,269.49 220.978,269.823 227.5,269.5C 222.349,270.327 217.016,270.827 211.5,271C 215.232,271.247 217.565,273.081 218.5,276.5C 219.5,276.5 220.5,276.5 221.5,276.5C 221.651,280.314 223.651,281.981 227.5,281.5C 227.343,282.873 227.51,284.207 228,285.5C 230.956,287.722 233.79,290.055 236.5,292.5C 235.221,295.112 233.555,297.445 231.5,299.5C 231.189,304.966 231.189,310.633 231.5,316.5C 231.167,317.167 230.833,317.833 230.5,318.5C 226.966,323.725 223.299,328.892 219.5,334C 213.398,334.596 207.731,333.43 202.5,330.5C 203.622,328.712 203.789,326.712 203,324.5C 199.969,322.622 197.969,319.955 197,316.5C 191.444,301.287 191.277,286.12 196.5,271C 195.591,269.211 195.424,267.377 196,265.5C 196.671,266.252 197.504,266.586 198.5,266.5 Z"/></g>
<g><path style="opacity:1" fill="#acc2dc" d="M 478.5,307.5 C 475.087,325.755 468.754,342.755 459.5,358.5C 459.22,355.728 459.887,353.228 461.5,351C 460.932,349.396 459.932,348.73 458.5,349C 457.853,350.609 457.02,352.109 456,353.5C 455.767,351.22 454.934,349.22 453.5,347.5C 452.575,346.438 451.575,346.438 450.5,347.5C 457.521,332.783 462.854,317.45 466.5,301.5C 468.41,298.548 469.41,295.214 469.5,291.5C 471.857,291.663 474.19,291.497 476.5,291C 476.793,287.263 476.959,283.43 477,279.5C 477.71,280.973 478.876,281.64 480.5,281.5C 480.59,290.236 479.924,298.903 478.5,307.5 Z"/></g>
<g><path style="opacity:1" fill="#133d6d" d="M 311.5,340.5 C 314.792,343.057 317.126,346.391 318.5,350.5C 319.045,355.575 316.878,359.575 312,362.5C 309.871,361.137 309.371,361.471 310.5,363.5C 308.602,368.276 306.269,372.61 303.5,376.5C 302.5,376.5 301.5,376.5 300.5,376.5C 296.781,384.412 291.614,391.412 285,397.5C 284.805,399.207 284.805,400.874 285,402.5C 281.681,404.482 279.514,407.315 278.5,411C 277.552,411.483 276.552,411.649 275.5,411.5C 275.5,412.5 275.5,413.5 275.5,414.5C 274.5,414.5 273.5,414.5 272.5,414.5C 271.612,418.416 270.112,422.083 268,425.5C 257.461,422.935 246.961,420.101 236.5,417C 231.18,414.186 225.847,411.686 220.5,409.5C 225.033,410.335 229.366,411.669 233.5,413.5C 234.192,412.975 234.692,412.308 235,411.5C 236.667,412.833 238.333,412.833 240,411.5C 240.368,412.91 241.201,413.91 242.5,414.5C 246.445,413.732 250.445,413.232 254.5,413C 255.38,411.644 255.714,410.144 255.5,408.5C 257.262,408.643 258.929,408.309 260.5,407.5C 261.996,404.509 263.496,401.509 265,398.5C 268.367,397.447 270.034,395.114 270,391.5C 273.477,385.989 277.477,380.989 282,376.5C 284.122,373.863 285.455,370.863 286,367.5C 289.005,365.64 291.172,363.64 292.5,361.5C 295.053,358.36 296.553,354.693 297,350.5C 299.333,349.833 301.667,349.167 304,348.5C 304.036,344.645 305.869,342.145 309.5,341C 306.151,340.911 305.651,339.744 308,337.5C 309.039,338.71 310.206,339.71 311.5,340.5 Z"/></g>
<g><path style="opacity:1" fill="#92afd0" d="M 37.5,332.5 C 42.7401,343.009 47.9067,353.675 53,364.5C 59.6379,374.637 66.4713,384.637 73.5,394.5C 68.544,395.494 63.544,395.827 58.5,395.5C 44.514,376.49 33.514,355.823 25.5,333.5C 27.3622,335.891 28.6955,338.558 29.5,341.5C 30.675,341.281 31.675,341.614 32.5,342.5C 33.5213,345.753 35.188,348.586 37.5,351C 38.635,351.749 39.635,351.583 40.5,350.5C 40.2907,349.914 39.9574,349.414 39.5,349C 43.2507,348.239 43.4174,347.072 40,345.5C 37.9449,341.235 37.1115,336.901 37.5,332.5 Z"/></g>
<g><path style="opacity:1" fill="#6f93bd" d="M 39.5,230.5 C 38.4106,239.629 37.7439,248.796 37.5,258C 39.2391,327.315 67.5725,382.815 122.5,424.5C 122.833,425.167 123.167,425.833 123.5,426.5C 121.338,427.417 119.005,427.417 116.5,426.5C 116.5,427.5 116.5,428.5 116.5,429.5C 108.403,422.28 99.7366,415.78 90.5,410C 86.1342,405.299 81.4675,400.966 76.5,397C 70.3193,396.828 64.3193,396.328 58.5,395.5C 63.544,395.827 68.544,395.494 73.5,394.5C 66.4713,384.637 59.6379,374.637 53,364.5C 47.9067,353.675 42.7401,343.009 37.5,332.5C 32.2106,315.043 28.2106,297.376 25.5,279.5C 25.5,272.833 25.5,266.167 25.5,259.5C 26.7918,261.255 27.7918,263.255 28.5,265.5C 31.0781,258.858 32.9114,259.191 34,266.5C 34.4189,262.148 35.0855,261.815 36,265.5C 36.3333,258.5 36.6667,251.5 37,244.5C 37.354,239.611 38.1873,234.944 39.5,230.5 Z"/></g>
<g><path style="opacity:1" fill="#19477d" d="M 120.5,193.5 C 117.228,201.981 114.562,210.648 112.5,219.5C 111.962,221.117 111.629,222.784 111.5,224.5C 110.239,227.258 109.406,230.258 109,233.5C 108.174,244.674 108.341,255.674 109.5,266.5C 109.511,273.251 110.178,279.918 111.5,286.5C 111.41,289.152 112.076,291.485 113.5,293.5C 114.63,298.224 115.964,302.891 117.5,307.5C 117.992,309.819 118.992,311.819 120.5,313.5C 130.9,336.967 146.9,355.634 168.5,369.5C 179.19,382.512 191.857,393.179 206.5,401.5C 210.856,404.679 215.523,407.346 220.5,409.5C 225.847,411.686 231.18,414.186 236.5,417C 246.961,420.101 257.461,422.935 268,425.5C 270.112,422.083 271.612,418.416 272.5,414.5C 273.5,414.5 274.5,414.5 275.5,414.5C 275.5,413.5 275.5,412.5 275.5,411.5C 276.552,411.649 277.552,411.483 278.5,411C 279.514,407.315 281.681,404.482 285,402.5C 284.805,400.874 284.805,399.207 285,397.5C 291.614,391.412 296.781,384.412 300.5,376.5C 301.5,376.5 302.5,376.5 303.5,376.5C 306.269,372.61 308.602,368.276 310.5,363.5C 309.371,361.471 309.871,361.137 312,362.5C 316.878,359.575 319.045,355.575 318.5,350.5C 325.33,360.154 331.663,370.154 337.5,380.5C 339.948,381.473 342.615,381.806 345.5,381.5C 346.167,382.833 346.833,384.167 347.5,385.5C 345.61,385.297 344.11,385.963 343,387.5C 342.085,386.672 341.419,385.672 341,384.5C 339.647,385.704 337.981,386.371 336,386.5C 327.49,387.024 318.99,387.691 310.5,388.5C 309.482,389.852 308.149,390.852 306.5,391.5C 308.357,395.079 307.357,397.413 303.5,398.5C 305.833,399.167 308.167,399.833 310.5,400.5C 307.966,401.777 305.466,401.777 303,400.5C 301.974,403.693 299.808,405.026 296.5,404.5C 296.5,410.167 296.5,415.833 296.5,421.5C 294.5,421.5 292.5,421.5 290.5,421.5C 290.5,422.5 290.5,423.5 290.5,424.5C 287.512,424.155 286.179,425.488 286.5,428.5C 287.525,430.81 288.692,432.81 290,434.5C 287.619,435.435 285.119,435.768 282.5,435.5C 282.5,436.5 282.5,437.5 282.5,438.5C 284.6,438.477 286.433,439.144 288,440.5C 291.956,437.57 294.456,438.57 295.5,443.5C 237.614,455.544 184.948,444.544 137.5,410.5C 130.581,405.918 124.247,400.585 118.5,394.5C 118.938,394.565 119.272,394.399 119.5,394C 116.668,390.788 114.335,387.288 112.5,383.5C 112.657,382.127 112.49,380.793 112,379.5C 102.082,365.485 95.2484,349.985 91.5,333C 91.6448,332.228 91.9781,331.561 92.5,331C 91.4889,320.431 89.4889,310.765 86.5,302C 87.5928,292.203 88.4261,282.37 89,272.5C 89.224,268.203 90.0573,264.037 91.5,260C 91.3552,259.228 91.0219,258.561 90.5,258C 92.7358,250.62 94.5692,243.12 96,235.5C 99.8438,230.133 102.011,224.133 102.5,217.5C 105.767,217.576 107.101,216.243 106.5,213.5C 108.33,211.519 109.496,209.185 110,206.5C 110.84,209.464 111.84,209.797 113,207.5C 112.004,203.117 112.337,198.784 114,194.5C 115.364,193.304 116.864,192.304 118.5,191.5C 119.713,191.747 120.38,192.414 120.5,193.5 Z"/></g>
<g><path style="opacity:1" fill="#b5c9e1" d="M 459.5,358.5 C 452.316,372.208 443.649,384.875 433.5,396.5C 427.755,401.742 422.089,407.242 416.5,413C 414.372,413.655 412.372,414.489 410.5,415.5C 410.357,413.738 410.691,412.071 411.5,410.5C 411,410.167 410.5,409.833 410,409.5C 408.296,409.974 406.462,410.141 404.5,410C 402.991,411.674 402.324,413.34 402.5,415C 400.866,415.494 399.199,415.66 397.5,415.5C 403.314,410.265 408.647,404.599 413.5,398.5C 414.167,398.167 414.833,397.833 415.5,397.5C 429.629,382.581 441.296,365.914 450.5,347.5C 451.575,346.438 452.575,346.438 453.5,347.5C 454.934,349.22 455.767,351.22 456,353.5C 457.02,352.109 457.853,350.609 458.5,349C 459.932,348.73 460.932,349.396 461.5,351C 459.887,353.228 459.22,355.728 459.5,358.5 Z"/></g>
<g><path style="opacity:1" fill="#0c315c" d="M 303.5,326.5 C 306.669,330.833 309.336,335.5 311.5,340.5C 310.206,339.71 309.039,338.71 308,337.5C 305.651,339.744 306.151,340.911 309.5,341C 305.869,342.145 304.036,344.645 304,348.5C 301.667,349.167 299.333,349.833 297,350.5C 296.553,354.693 295.053,358.36 292.5,361.5C 291.172,363.64 289.005,365.64 286,367.5C 285.455,370.863 284.122,373.863 282,376.5C 277.477,380.989 273.477,385.989 270,391.5C 270.034,395.114 268.367,397.447 265,398.5C 263.496,401.509 261.996,404.509 260.5,407.5C 258.929,408.309 257.262,408.643 255.5,408.5C 255.714,410.144 255.38,411.644 254.5,413C 250.445,413.232 246.445,413.732 242.5,414.5C 241.201,413.91 240.368,412.91 240,411.5C 238.333,412.833 236.667,412.833 235,411.5C 234.692,412.308 234.192,412.975 233.5,413.5C 229.366,411.669 225.033,410.335 220.5,409.5C 215.523,407.346 210.856,404.679 206.5,401.5C 210.49,401.999 214.49,402.499 218.5,403C 220.978,405.333 223.311,405.499 225.5,403.5C 227.404,404.26 229.404,404.26 231.5,403.5C 233.678,404.851 236.012,405.851 238.5,406.5C 239.5,406.167 240.5,405.833 241.5,405.5C 241.291,404.914 240.957,404.414 240.5,404C 243.146,403.503 245.813,403.336 248.5,403.5C 248.351,404.552 248.517,405.552 249,406.5C 251.38,403.119 254.38,400.453 258,398.5C 258.26,396.382 259.26,394.716 261,393.5C 261.498,390.518 261.665,387.518 261.5,384.5C 262.552,384.649 263.552,384.483 264.5,384C 266.433,381.864 268.099,379.531 269.5,377C 270.448,376.517 271.448,376.351 272.5,376.5C 274.74,372.332 276.907,367.998 279,363.5C 280.011,362.663 281.178,362.33 282.5,362.5C 282.343,361.127 282.51,359.793 283,358.5C 283.828,355.42 285.328,353.587 287.5,353C 287.167,352.667 286.833,352.333 286.5,352C 288,349.167 289.5,346.333 291,343.5C 293.667,341.5 296.333,339.5 299,337.5C 299.457,334.204 300.291,331.037 301.5,328C 301.167,327.667 300.833,327.333 300.5,327C 301.769,327.109 302.769,326.942 303.5,326.5 Z"/></g>
<g><path style="opacity:1" fill="#848b97" d="M 181.5,375.5 C 183.967,375.755 185.967,376.755 187.5,378.5C 185.033,378.245 183.033,377.245 181.5,375.5 Z"/></g>
<g><path style="opacity:1" fill="#909ba5" d="M 187.5,378.5 C 189.898,378.259 191.898,378.926 193.5,380.5C 191.102,380.741 189.102,380.074 187.5,378.5 Z"/></g>
<g><path style="opacity:1" fill="#abb5c1" d="M 393.5,378.5 C 394.404,379.209 394.737,380.209 394.5,381.5C 378.167,381.5 361.833,381.5 345.5,381.5C 342.615,381.806 339.948,381.473 337.5,380.5C 356.53,381.154 375.197,380.487 393.5,378.5 Z"/></g>
<g><path style="opacity:1" fill="#0a2b52" d="M 283.5,212.5 C 290.845,216.762 297.345,222.096 303,228.5C 304.606,231.378 305.939,234.378 307,237.5C 315.871,248.034 323.538,259.368 330,271.5C 331,272.167 332,272.833 333,273.5C 340.09,284.254 346.757,295.254 353,306.5C 364,321.833 375,337.167 386,352.5C 388.224,358.363 391.557,363.363 396,367.5C 397.994,371.643 400.161,375.643 402.5,379.5C 402.271,381.433 401.438,383.1 400,384.5C 395.63,388.702 391.463,393.036 387.5,397.5C 381.884,401.115 376.55,405.115 371.5,409.5C 368.168,406.175 364.501,403.175 360.5,400.5C 356.385,395.241 352.052,390.241 347.5,385.5C 346.833,384.167 346.167,382.833 345.5,381.5C 361.833,381.5 378.167,381.5 394.5,381.5C 394.737,380.209 394.404,379.209 393.5,378.5C 356.441,323.438 319.774,268.105 283.5,212.5 Z"/></g>
<g><path style="opacity:1" fill="#1c4b81" d="M 347.5,385.5 C 352.052,390.241 356.385,395.241 360.5,400.5C 364.501,403.175 368.168,406.175 371.5,409.5C 348.779,426.418 323.446,437.751 295.5,443.5C 294.456,438.57 291.956,437.57 288,440.5C 286.433,439.144 284.6,438.477 282.5,438.5C 282.5,437.5 282.5,436.5 282.5,435.5C 285.119,435.768 287.619,435.435 290,434.5C 288.692,432.81 287.525,430.81 286.5,428.5C 286.179,425.488 287.512,424.155 290.5,424.5C 290.5,423.5 290.5,422.5 290.5,421.5C 292.5,421.5 294.5,421.5 296.5,421.5C 296.5,415.833 296.5,410.167 296.5,404.5C 299.808,405.026 301.974,403.693 303,400.5C 305.466,401.777 307.966,401.777 310.5,400.5C 308.167,399.833 305.833,399.167 303.5,398.5C 307.357,397.413 308.357,395.079 306.5,391.5C 308.149,390.852 309.482,389.852 310.5,388.5C 318.99,387.691 327.49,387.024 336,386.5C 337.981,386.371 339.647,385.704 341,384.5C 341.419,385.672 342.085,386.672 343,387.5C 344.11,385.963 345.61,385.297 347.5,385.5 Z"/></g>
<g><path style="opacity:1" fill="#21446c" d="M 402.5,379.5 C 403.167,379.833 403.833,380.167 404.5,380.5C 407.419,386.677 411.086,392.344 415.5,397.5C 414.833,397.833 414.167,398.167 413.5,398.5C 404.918,397.53 396.251,397.197 387.5,397.5C 391.463,393.036 395.63,388.702 400,384.5C 401.438,383.1 402.271,381.433 402.5,379.5 Z"/></g>
<g><path style="opacity:1" fill="#c3d2e6" d="M 410.5,415.5 C 396.029,429.79 379.696,441.623 361.5,451C 350.562,455.553 339.229,458.386 327.5,459.5C 317.161,459.666 306.828,459.5 296.5,459C 305.994,458.973 315.328,458.307 324.5,457C 306.302,456.975 288.302,456.142 270.5,454.5C 285.676,454.829 300.676,454.496 315.5,453.5C 346.685,448.904 374.018,436.238 397.5,415.5C 399.199,415.66 400.866,415.494 402.5,415C 402.324,413.34 402.991,411.674 404.5,410C 406.462,410.141 408.296,409.974 410,409.5C 410.5,409.833 411,410.167 411.5,410.5C 410.691,412.071 410.357,413.738 410.5,415.5 Z"/></g>
<g><path style="opacity:1" fill="#406897" d="M 387.5,397.5 C 396.251,397.197 404.918,397.53 413.5,398.5C 408.647,404.599 403.314,410.265 397.5,415.5C 374.018,436.238 346.685,448.904 315.5,453.5C 272.832,453.667 230.165,453.5 187.5,453C 175.993,450.428 164.659,447.094 153.5,443C 143.317,437.744 133.317,432.244 123.5,426.5C 123.167,425.833 122.833,425.167 122.5,424.5C 127.507,423.609 132.507,422.609 137.5,421.5C 135.5,420.833 133.5,420.167 131.5,419.5C 136.672,417.402 137.339,414.568 133.5,411C 134.793,410.51 136.127,410.343 137.5,410.5C 184.948,444.544 237.614,455.544 295.5,443.5C 323.446,437.751 348.779,426.418 371.5,409.5C 376.55,405.115 381.884,401.115 387.5,397.5 Z"/></g>
<g><path style="opacity:0.004" fill="#809fb9" d="M 508.5,443.5 C 509.833,444.167 509.833,444.167 508.5,443.5 Z"/></g>
<g><path style="opacity:1" fill="#9db6d5" d="M 123.5,426.5 C 133.317,432.244 143.317,437.744 153.5,443C 164.659,447.094 175.993,450.428 187.5,453C 230.165,453.5 272.832,453.667 315.5,453.5C 300.676,454.496 285.676,454.829 270.5,454.5C 244.498,454.333 218.498,454.5 192.5,455C 187.533,456.158 182.533,457.158 177.5,458C 178.737,458.232 179.737,458.732 180.5,459.5C 167.499,457.777 155.166,453.944 143.5,448C 134.124,442.318 125.124,436.151 116.5,429.5C 116.5,428.5 116.5,427.5 116.5,426.5C 119.005,427.417 121.338,427.417 123.5,426.5 Z"/></g>
<g><path style="opacity:1" fill="#abbed9" d="M 270.5,454.5 C 288.302,456.142 306.302,456.975 324.5,457C 315.328,458.307 305.994,458.973 296.5,459C 306.828,459.5 317.161,459.666 327.5,459.5C 326.737,460.268 325.737,460.768 324.5,461C 277.833,461.667 231.167,461.667 184.5,461C 183.437,459.812 182.103,459.312 180.5,459.5C 179.737,458.732 178.737,458.232 177.5,458C 182.533,457.158 187.533,456.158 192.5,455C 218.498,454.5 244.498,454.333 270.5,454.5 Z"/></g>
<g><path style="opacity:0.263" fill="#7a92aa" d="M 506.5,446.5 C 505.265,452.964 502.931,458.964 499.5,464.5C 499.167,464.5 498.833,464.5 498.5,464.5C 499.968,459.009 501.968,453.676 504.5,448.5C 504.747,447.287 505.414,446.62 506.5,446.5 Z"/></g>
<g><path style="opacity:0.004" fill="#719cbd" d="M 10.5,463.5 C 9.83333,464.167 9.83333,464.167 10.5,463.5 Z"/></g>
<g><path style="opacity:0.004" fill="#8f9eac" d="M 499.5,464.5 C 500.833,465.167 500.833,465.167 499.5,464.5 Z"/></g>
<g><path style="opacity:0.004" fill="#7a98b5" d="M 12.5,466.5 C 11.8333,467.167 11.8333,467.167 12.5,466.5 Z"/></g>
<g><path style="opacity:0.004" fill="#9498a6" d="M 498.5,466.5 C 499.833,467.167 499.833,467.167 498.5,466.5 Z"/></g>
<g><path style="opacity:0.51" fill="#667f95" d="M 496.5,467.5 C 496.249,469.17 495.582,470.67 494.5,472C 494.833,472.333 495.167,472.667 495.5,473C 494.099,473.41 492.766,473.91 491.5,474.5C 492.014,472.302 493.014,470.302 494.5,468.5C 494.957,467.702 495.624,467.369 496.5,467.5 Z"/></g>
<g><path style="opacity:0.004" fill="#859cb3" d="M 14.5,472.5 C 15.8333,473.167 15.8333,473.167 14.5,472.5 Z"/></g>
<g><path style="opacity:0.004" fill="#5a7c9c" d="M 493.5,474.5 C 494.833,475.167 494.833,475.167 493.5,474.5 Z"/></g>
<g><path style="opacity:0.004" fill="#1a3f60" d="M 25.5,483.5 C 24.8333,484.167 24.8333,484.167 25.5,483.5 Z"/></g>
<g><path style="opacity:0.306" fill="#8495aa" d="M 480.5,487.5 C 477.281,490.264 474.281,493.264 471.5,496.5C 470.833,496.5 470.167,496.5 469.5,496.5C 469.5,495.5 469.5,494.5 469.5,493.5C 473.14,491.545 476.806,489.545 480.5,487.5 Z"/></g>
<g><path style="opacity:0.004" fill="#093250" d="M 38.5,495.5 C 38.5,495.833 38.5,496.167 38.5,496.5C 37.8299,496.019 37.8299,495.685 38.5,495.5 Z"/></g>
<g><path style="opacity:0.004" fill="#92a4b3" d="M 473.5,495.5 C 474.833,496.167 474.833,496.167 473.5,495.5 Z"/></g>
<g><path style="opacity:0.004" fill="#245087" d="M 38.5,496.5 C 39.8333,497.167 39.8333,497.167 38.5,496.5 Z"/></g>
<g><path style="opacity:0.004" fill="#88a1b6" d="M 471.5,496.5 C 472.833,497.167 472.833,497.167 471.5,496.5 Z"/></g>
<g><path style="opacity:0.004" fill="#1f527a" d="M 45.5,499.5 C 44.8333,500.167 44.8333,500.167 45.5,499.5 Z"/></g>
<g><path style="opacity:1" fill="#597594" d="M 46.5,499.5 C 50.9932,500.242 54.6599,502.242 57.5,505.5C 53.0445,504.66 49.3779,502.66 46.5,499.5 Z"/></g>
<g><path style="opacity:0.259" fill="#7a8aa2" d="M 464.5,499.5 C 465.895,500.648 465.728,501.648 464,502.5C 461.342,501.306 460.176,502.306 460.5,505.5C 456.538,504.486 452.871,505.153 449.5,507.5C 446.56,508.202 443.727,509.202 441,510.5C 440.601,510.272 440.435,509.938 440.5,509.5C 448.188,506.021 456.188,502.688 464.5,499.5 Z"/></g>
<g><path style="opacity:0.835" fill="#4f6a8f" d="M 72.5,510.5 C 70.2444,510.602 67.911,510.268 65.5,509.5C 64.0697,508.463 62.403,507.796 60.5,507.5C 59.8333,506.833 59.1667,506.167 58.5,505.5C 58.56,504.957 58.8933,504.624 59.5,504.5C 62.7907,506.721 66.4574,507.887 70.5,508C 71.756,508.417 72.4226,509.25 72.5,510.5 Z"/></g>
<g><path style="opacity:0.004" fill="#959ea6" d="M 453.5,506.5 C 454.833,507.167 454.833,507.167 453.5,506.5 Z"/></g>
<g><path style="opacity:0.004" fill="#5f799d" d="M 60.5,507.5 C 59.8333,508.167 59.8333,508.167 60.5,507.5 Z"/></g>
<g><path style="opacity:0.004" fill="#6d7f96" d="M 449.5,507.5 C 450.833,508.167 450.833,508.167 449.5,507.5 Z"/></g>
<g><path style="opacity:0.004" fill="#96a2b2" d="M 449.5,508.5 C 448.833,509.167 448.833,509.167 449.5,508.5 Z"/></g>
<g><path style="opacity:0.004" fill="#607796" d="M 65.5,509.5 C 64.8333,510.167 64.8333,510.167 65.5,509.5 Z"/></g>
</svg>
